PathFileType	4	(X/Y/Z)	 s06c0202.trc
DataRate	CameraRate	NumFrames	NumMarkers	Units	OrigDataRate	OrigDataStartFrame	OrigNumFrames
200	200	4	48	mm	200	1751	2000
Frame#	Time	racr			lacr			c7			jug			rlel			rdr			llel			ldr			s2			lic			ric			lasi			rasi			rpsi			lpsi			rgt			lgt			rth1			rth2			rth3			rth4			rlfc			rmfc			rsh1			rsh2			rsh3			rsh4			rlmal			rcal			rtoe			rmt5			lth1			lth2			lth4			lth3			llfc			lmfc			llmal			lcal			lmt5			lsh1			lsh2			lsh3			lsh4			ltoe			SBIKE			LBIKE			RBIKE			
		X1	Y1	Z1	X2	Y2	Z2	X3	Y3	Z3	X4	Y4	Z4	X5	Y5	Z5	X6	Y6	Z6	X7	Y7	Z7	X8	Y8	Z8	X9	Y9	Z9	X10	Y10	Z10	X11	Y11	Z11	X12	Y12	Z12	X13	Y13	Z13	X14	Y14	Z14	X15	Y15	Z15	X16	Y16	Z16	X17	Y17	Z17	X18	Y18	Z18	X19	Y19	Z19	X20	Y20	Z20	X21	Y21	Z21	X22	Y22	Z22	X23	Y23	Z23	X24	Y24	Z24	X25	Y25	Z25	X26	Y26	Z26	X27	Y27	Z27	X28	Y28	Z28	X29	Y29	Z29	X30	Y30	Z30	X31	Y31	Z31	X32	Y32	Z32	X33	Y33	Z33	X34	Y34	Z34	X35	Y35	Z35	X36	Y36	Z36	X37	Y37	Z37	X38	Y38	Z38	X39	Y39	Z39	X40	Y40	Z40	X41	Y41	Z41	X42	Y42	Z42	X43	Y43	Z43	X44	Y44	Z44	X45	Y45	Z45	X46	Y46	Z46	X47	Y47	Z47	X48	Y48	Z48	
1751	8.7550	544.032850	1211.865029	-76.985938	551.472754	1193.686615	-391.830600	550.922368	1300.848828	-234.873843	523.673230	1140.076817	-227.420502	477.513741	992.011840	64.938515	651.167419	911.904271	-53.319287	462.670928	959.680256	-501.234566	651.624743	916.761925	-384.199889	-3.532091	1139.300786	-199.169204	141.878592	1091.835401	-383.633702	151.442810	1097.754961	-43.009480	158.831441	1040.407009	-342.096215	173.713147	1055.696051	-81.935880	31.854935	1173.903229	-168.322120	30.099632	1172.962074	-228.273517	115.204717	1012.303656	-3.579099	120.332974	1038.816976	-402.637868	208.239901	919.912053	-3.556438	282.578827	866.849016	-13.474299	317.358663	787.459603	-20.458015	305.200610	890.279431	-31.892298	340.433131	692.494398	-45.828850	319.418958	677.697564	-154.445295	250.315236	609.971221	-22.260292	194.491068	547.276105	-46.159036	113.309356	512.604989	-48.009276	207.562066	535.206204	-82.808510	39.933195	475.122867	-51.642583	-25.280698	497.450478	-99.741122	150.194759	283.523691	-94.074735	67.771785	341.426880	-27.257714	186.071648	938.170000	-411.950744	263.103947	897.621009	-407.019261	287.533637	923.734517	-395.277695	310.147882	821.890312	-402.582686	364.974207	716.753601	-381.018329	372.783218	698.438333	-269.331017	258.956281	359.875339	-375.266606	187.800368	317.041435	-327.367525	383.223361	316.318906	-405.154034	338.891974	610.717589	-402.070511	334.290839	525.973818	-381.724213	289.766391	449.625025	-381.478314	359.701616	522.938170	-351.430578	467.580685	338.894419	-347.561274	-202.773471	867.819632	-206.509089	-49.348520	83.778253	-414.427891	-49.183674	79.835970	-16.904055	
1752	8.7600	544.028926	1212.320088	-76.811545	551.660556	1194.254773	-391.679583	551.154899	1301.201794	-234.701847	524.123468	1140.610787	-227.052181	477.777583	992.547677	65.786103	651.332899	912.323423	-52.731052	462.039412	959.918408	-500.630379	651.475582	916.408198	-384.239165	-3.624297	1140.493878	-197.877718	141.565261	1092.308838	-383.530828	150.763115	1099.668946	-42.109766	158.964107	1040.997777	-341.773815	173.498494	1056.716305	-82.296978	32.242506	1174.616312	-168.819388	30.457369	1173.593499	-228.520067	115.667650	1014.700446	-3.305599	119.913834	1037.756043	-402.415089	209.933575	924.271393	-3.005679	285.337999	872.866872	-12.950357	322.028221	794.382944	-19.468503	307.181985	896.608057	-32.267675	345.609714	699.820201	-44.906714	324.158231	684.611892	-153.454803	254.436297	617.809419	-21.622526	197.789337	555.922345	-45.527272	116.055478	522.351939	-47.647488	210.704157	543.608476	-82.195325	42.386471	485.839547	-51.489252	-22.941022	508.543549	-99.814915	151.636415	293.937539	-94.074021	69.552136	352.048718	-27.198277	185.208234	933.713462	-412.665634	260.691111	890.527151	-407.147433	286.051215	915.870584	-395.587508	304.986684	813.266354	-401.884984	357.846144	707.818826	-380.907086	365.099615	690.028357	-269.199115	257.249972	349.206724	-375.520365	186.261899	306.680699	-327.683129	381.768218	305.447800	-405.054792	333.025821	601.464971	-402.636426	329.869635	516.722033	-381.960366	286.613089	439.627946	-381.648919	355.350857	514.151886	-351.758722	466.234953	328.468595	-348.034057	-202.807796	867.821209	-206.580480	-49.357629	83.803369	-414.423741	-49.195029	79.854174	-16.906537	
1753	8.7650	544.082028	1212.789702	-76.556941	551.989795	1194.620103	-391.370123	551.503204	1301.569750	-234.414332	524.483486	1141.207926	-226.731239	478.096108	993.057291	66.727364	651.493432	912.648085	-52.324586	461.610801	959.989652	-499.703957	651.392109	916.016777	-384.194930	-2.951889	1141.391348	-198.619695	141.368570	1093.110568	-383.538812	150.858233	1100.963180	-42.974636	159.471000	1042.093009	-341.459346	172.700333	1058.644867	-83.512283	32.754974	1175.514912	-169.355406	30.965612	1174.476805	-229.044250	115.928481	1017.598155	-3.173856	119.953897	1037.068586	-402.108732	211.410139	929.200363	-2.796723	287.291842	879.544362	-12.601817	326.545674	801.763874	-18.310851	309.035407	903.484984	-32.736731	350.836200	707.285651	-44.038833	329.019048	690.730685	-152.682278	258.613078	625.819393	-21.047026	201.292381	564.632192	-45.014699	119.275397	532.205451	-47.288511	214.085266	551.637495	-82.015194	45.281293	496.430224	-51.362163	-20.552224	519.345990	-100.135051	153.882564	304.296716	-94.095889	71.975997	362.750932	-27.154977	184.015793	929.450898	-413.512380	257.906508	883.791695	-407.229132	284.101741	908.293851	-395.868204	299.489837	805.087800	-401.238994	350.445379	699.420839	-380.844504	356.908536	681.902401	-268.924491	255.009311	338.937524	-375.825545	184.196537	296.605307	-328.040948	379.737305	294.744322	-405.038335	327.127135	592.341828	-402.987791	325.221400	507.766797	-382.159677	283.105396	430.022611	-381.791222	350.639775	505.643059	-351.815202	464.049779	316.822238	-347.217060	-202.832473	867.838646	-206.656343	-49.362585	83.796894	-414.431500	-49.195314	79.862783	-16.923788	
1754	8.7700	544.181847	1213.219060	-76.247812	552.422826	1194.808485	-390.890200	551.906060	1301.984926	-234.047560	524.756616	1141.762343	-226.448727	478.714628	993.375925	67.834504	651.676810	912.957690	-52.110201	461.226881	960.303141	-499.343387	651.286325	915.779563	-384.413879	-2.246855	1142.332045	-199.586914	141.412556	1094.136785	-383.869346	150.539933	1102.299493	-43.866778	160.445680	1043.524289	-341.446590	172.484207	1060.749304	-84.227069	33.219691	1176.549426	-170.310693	31.588948	1175.262084	-229.939579	116.084924	1020.911592	-3.130164	120.265668	1036.543890	-401.832400	212.590216	934.715303	-2.909082	289.481064	886.435038	-12.424072	330.093833	809.839124	-17.428614	310.645576	910.800676	-33.151540	356.198126	715.007844	-43.071334	339.364523	699.561784	-152.634283	262.698292	634.347362	-20.182270	205.334150	573.513901	-44.527473	122.775861	542.159577	-46.914613	217.866883	560.400328	-81.648251	48.441304	507.331728	-51.088222	-17.364713	529.990042	-100.182130	156.706562	314.687246	-94.186452	74.937060	373.353723	-27.215891	182.409950	925.498128	-414.740535	254.707076	877.507189	-407.257581	281.588764	901.274126	-396.069480	293.638589	797.271098	-400.398271	342.899397	691.405481	-380.670806	348.490993	673.867189	-268.006509	252.294199	329.075097	-376.062516	181.527674	287.210994	-328.360399	377.187927	284.244448	-404.953879	321.034220	583.865725	-403.169331	320.260918	499.116407	-382.238644	279.143590	420.920381	-381.837118	345.532132	497.386774	-351.705363	461.538938	305.873723	-346.974957	-202.845775	867.828561	-206.759040	-49.354104	83.797672	-414.444543	-49.190785	79.866355	-16.919835	
